<?xml version="1.0" standalone="no"?><!DOCTYPE svg PUBLIC "-//W3C//DTD SVG 1.1//EN" "http://www.w3.org/Graphics/SVG/1.1/DTD/svg11.dtd"><svg t="1581733181839" class="icon" viewBox="0 0 1129 1024" version="1.1" xmlns="http://www.w3.org/2000/svg" p-id="1162" xmlns:xlink="http://www.w3.org/1999/xlink" width="220.5078125" height="200"><defs><style type="text/css"></style></defs><path d="M789.186207 824.496552h-143.006897c-8.827586 0-17.655172-7.062069-17.655172-17.655173v-134.17931h-111.227586v134.17931c0 8.827586-7.062069 17.655172-17.655173 17.655173h-143.006896c-8.827586 0-17.655172-7.062069-17.655173-17.655173V534.951724h-105.931034c-7.062069 0-12.358621-3.531034-15.889655-10.593103s-1.765517-14.124138 3.531034-17.655173L557.903448 169.489655c7.062069-7.062069 17.655172-7.062069 24.717242 0l326.620689 326.62069c5.296552 5.296552 7.062069 12.358621 3.531035 17.655172s-8.827586 10.593103-15.889655 10.593104h-90.04138v282.482758c0 10.593103-8.827586 17.655172-17.655172 17.655173z m-127.117241-33.544828h109.462068v-282.482758c0-8.827586 7.062069-17.655172 17.655173-17.655173h67.089655L570.262069 204.8 273.655172 501.406897h82.979311c8.827586 0 17.655172 7.062069 17.655172 17.655172v271.889655h109.462069v-134.17931c0-8.827586 7.062069-17.655172 17.655173-17.655173h146.537931c8.827586 0 17.655172 7.062069 17.655172 17.655173v134.17931z" fill="#3164AF" p-id="1163"></path></svg>